<svg width="4181" height="2446" xmlns="http://www.w3.org/2000/svg" xmlns:xlink="http://www.w3.org/1999/xlink" xml:space="preserve" overflow="hidden"><defs><clipPath id="clip0"><rect x="4833" y="3600" width="4181" height="2446"/></clipPath></defs><g clip-path="url(#clip0)" transform="translate(-4833 -3600)"><rect x="4834" y="3601" width="4178" height="2443" fill="#FFFFFF"/><g><path d="M5156.5 5261.67 8962.5 5261.67M5156.5 5080.67 8962.5 5080.67M5156.5 4898.66 8962.5 4898.66M5156.5 4717.65 8962.5 4717.65M5156.5 4536.65 8962.5 4536.65M5156.5 4354.64 8962.5 4354.64M5156.5 4173.64 8962.5 4173.64M5156.5 3991.63 8962.5 3991.63M5156.5 3810.5 8962.5 3810.5" stroke="#D9D9D9" stroke-width="3.4375" stroke-linejoin="round" stroke-miterlimit="10" fill="none"/></g><g><path d="M5156.5 3810.5 5156.5 5443.5M5356.68 3810.5 5356.68 5443.5M5557.68 3810.5 5557.68 5443.5M5757.69 3810.5 5757.69 5443.5M5957.7 3810.5 5957.7 5443.5M6157.7 3810.5 6157.7 5443.5M6358.71 3810.5 6358.71 5443.5M6558.72 3810.5 6558.72 5443.5M6758.72 3810.5 6758.72 5443.5M6959.73 3810.5 6959.73 5443.5M7159.73 3810.5 7159.73 5443.5M7359.74 3810.5 7359.74 5443.5M7559.75 3810.5 7559.75 5443.5M7760.75 3810.5 7760.75 5443.5M7960.76 3810.5 7960.76 5443.5M8160.77 3810.5 8160.77 5443.5M8360.77 3810.5 8360.77 5443.5M8561.78 3810.5 8561.78 5443.5M8761.79 3810.5 8761.79 5443.5M8962.5 3810.5 8962.5 5443.5" stroke="#D9D9D9" stroke-width="3.4375" stroke-linejoin="round" stroke-miterlimit="10" fill="none"/></g><g><path d="M5156.5 5443.5 8962.5 5443.5" stroke="#D9D9D9" stroke-width="3.4375" stroke-linejoin="round" stroke-miterlimit="10" fill="none" fill-rule="evenodd"/></g><g><path d="M5157 4942.16 5357.18 4953.16 5557.18 4971 5757.19 4912.16 5958.2 4930.16 6158.2 4955.16 6358.21 4794.16 6559.22 4046.13 6759.22 3965 6959.23 4046.13 7159.23 4092.13 7360.24 4101.13 7560.25 4101.13 7760.25 4237.14 7961 4237.14" stroke="#156082" stroke-width="10.3125" stroke-linecap="round" stroke-linejoin="round" stroke-miterlimit="10" fill="none"/></g><g><path d="M5157 4982.16 5357.18 4943.16 5557.18 5014 5757.19 4988.16 5958.2 5010.16 6158.2 4974.16 6358.21 4975.16 6559.22 4986.16 6759.22 4951.16 6959.23 4971.16 7159.23 4986.16 7360.24 4954.16 7560.25 4967.16 7760.25 4964.16 7960.26 4842.16 8161.27 4955.16 8361.27 4746.16 8561.28 4606 8762.29 4627.15 8962 4672.15" stroke="#E97132" stroke-width="10.3125" stroke-linecap="round" stroke-linejoin="round" stroke-miterlimit="10" fill="none"/></g><g><path d="M5157 4966.16 5357.18 4971 5557.18 4958.16 5757.19 4938.16 5958.2 4965.16 6158.2 4967.16 6358.21 4967.16 6559.22 4961.16 6759.22 4962.16 6959.23 4364.14 7159.23 4300.14 7360.24 4382.14 7560.25 4128 7760.25 4445.15 7961 4445.15" stroke="#196B24" stroke-width="10.3125" stroke-linecap="round" stroke-linejoin="round" stroke-miterlimit="10" fill="none"/></g><g><text font-family="Aptos Narrow,Aptos Narrow_MSFontService,sans-serif" font-weight="400" font-stretch="semi-condensed" font-size="55" transform="matrix(1 0 0 1 5078.11 5459)">0</text></g><g><text font-family="Aptos Narrow,Aptos Narrow_MSFontService,sans-serif" font-weight="400" font-stretch="semi-condensed" font-size="55" transform="matrix(1 0 0 1 5022.37 5277)">200</text></g><g><text font-family="Aptos Narrow,Aptos Narrow_MSFontService,sans-serif" font-weight="400" font-stretch="semi-condensed" font-size="55" transform="matrix(1 0 0 1 5022.37 5096)">400</text></g><g><text font-family="Aptos Narrow,Aptos Narrow_MSFontService,sans-serif" font-weight="400" font-stretch="semi-condensed" font-size="55" transform="matrix(1 0 0 1 5022.37 4914)">600</text></g><g><text font-family="Aptos Narrow,Aptos Narrow_MSFontService,sans-serif" font-weight="400" font-stretch="semi-condensed" font-size="55" transform="matrix(1 0 0 1 5022.37 4733)">800</text></g><g><text font-family="Aptos Narrow,Aptos Narrow_MSFontService,sans-serif" font-weight="400" font-stretch="semi-condensed" font-size="55" transform="matrix(1 0 0 1 4994.51 4552)">1000</text></g><g><text font-family="Aptos Narrow,Aptos Narrow_MSFontService,sans-serif" font-weight="400" font-stretch="semi-condensed" font-size="55" transform="matrix(1 0 0 1 4994.51 4370)">1200</text></g><g><text font-family="Aptos Narrow,Aptos Narrow_MSFontService,sans-serif" font-weight="400" font-stretch="semi-condensed" font-size="55" transform="matrix(1 0 0 1 4994.51 4189)">1400</text></g><g><text font-family="Aptos Narrow,Aptos Narrow_MSFontService,sans-serif" font-weight="400" font-stretch="semi-condensed" font-size="55" transform="matrix(1 0 0 1 4994.51 4007)">1600</text></g><g><text font-family="Aptos Narrow,Aptos Narrow_MSFontService,sans-serif" font-weight="400" font-stretch="semi-condensed" font-size="55" transform="matrix(1 0 0 1 4994.51 3826)">1800</text></g><g><text font-family="Aptos Narrow,Aptos Narrow_MSFontService,sans-serif" font-weight="400" font-stretch="semi-condensed" font-size="55" transform="matrix(6.12323e-17 -1 1 6.12323e-17 5175.19 5778)">1 W - 10K EPS</text></g><g><text font-family="Aptos Narrow,Aptos Narrow_MSFontService,sans-serif" font-weight="400" font-stretch="semi-condensed" font-size="55" transform="matrix(6.12323e-17 -1 1 6.12323e-17 5375.47 5778)">2 W - 10K EPS</text></g><g><text font-family="Aptos Narrow,Aptos Narrow_MSFontService,sans-serif" font-weight="400" font-stretch="semi-condensed" font-size="55" transform="matrix(6.12323e-17 -1 1 6.12323e-17 5575.75 5778)">3 W - 10K EPS</text></g><g><text font-family="Aptos Narrow,Aptos Narrow_MSFontService,sans-serif" font-weight="400" font-stretch="semi-condensed" font-size="55" transform="matrix(6.12323e-17 -1 1 6.12323e-17 5776.03 5778)">1 W - 20K EPS</text></g><g><text font-family="Aptos Narrow,Aptos Narrow_MSFontService,sans-serif" font-weight="400" font-stretch="semi-condensed" font-size="55" transform="matrix(6.12323e-17 -1 1 6.12323e-17 5976.31 5778)">2 W - 20K EPS</text></g><g><text font-family="Aptos Narrow,Aptos Narrow_MSFontService,sans-serif" font-weight="400" font-stretch="semi-condensed" font-size="55" transform="matrix(6.12323e-17 -1 1 6.12323e-17 6176.59 5778)">3 W - 20K EPS</text></g><g><text font-family="Aptos Narrow,Aptos Narrow_MSFontService,sans-serif" font-weight="400" font-stretch="semi-condensed" font-size="55" transform="matrix(6.12323e-17 -1 1 6.12323e-17 6376.87 5778)">3 W - 30K EPS</text></g><g><text font-family="Aptos Narrow,Aptos Narrow_MSFontService,sans-serif" font-weight="400" font-stretch="semi-condensed" font-size="55" transform="matrix(6.12323e-17 -1 1 6.12323e-17 6577.15 5778)">3 W - 40K EPS</text></g><g><text font-family="Aptos Narrow,Aptos Narrow_MSFontService,sans-serif" font-weight="400" font-stretch="semi-condensed" font-size="55" transform="matrix(6.12323e-17 -1 1 6.12323e-17 6777.43 5778)">2 W - 30K EPS</text></g><g><text font-family="Aptos Narrow,Aptos Narrow_MSFontService,sans-serif" font-weight="400" font-stretch="semi-condensed" font-size="55" transform="matrix(6.12323e-17 -1 1 6.12323e-17 6977.71 5778)">3 W - 50K EPS</text></g><g><text font-family="Aptos Narrow,Aptos Narrow_MSFontService,sans-serif" font-weight="400" font-stretch="semi-condensed" font-size="55" transform="matrix(6.12323e-17 -1 1 6.12323e-17 7177.99 5778)">2 W - 40K EPS</text></g><g><text font-family="Aptos Narrow,Aptos Narrow_MSFontService,sans-serif" font-weight="400" font-stretch="semi-condensed" font-size="55" transform="matrix(6.12323e-17 -1 1 6.12323e-17 7378.27 5778)">2 W - 50K EPS</text></g><g><text font-family="Aptos Narrow,Aptos Narrow_MSFontService,sans-serif" font-weight="400" font-stretch="semi-condensed" font-size="55" transform="matrix(6.12323e-17 -1 1 6.12323e-17 7578.55 5778)">1 W - 30K EPS</text></g><g><text font-family="Aptos Narrow,Aptos Narrow_MSFontService,sans-serif" font-weight="400" font-stretch="semi-condensed" font-size="55" transform="matrix(6.12323e-17 -1 1 6.12323e-17 7778.83 5778)">1 W - 40K EPS</text></g><g><text font-family="Aptos Narrow,Aptos Narrow_MSFontService,sans-serif" font-weight="400" font-stretch="semi-condensed" font-size="55" transform="matrix(6.12323e-17 -1 1 6.12323e-17 7979.11 5778)">1 W - 50K EPS</text></g><g><text font-family="Aptos Narrow,Aptos Narrow_MSFontService,sans-serif" font-weight="400" font-stretch="semi-condensed" font-size="55" transform="matrix(6.12323e-17 -1 1 6.12323e-17 8179.39 5778)">2 W - 60K EPS</text></g><g><text font-family="Aptos Narrow,Aptos Narrow_MSFontService,sans-serif" font-weight="400" font-stretch="semi-condensed" font-size="55" transform="matrix(6.12323e-17 -1 1 6.12323e-17 8379.67 5778)">3 W - 70K EPS</text></g><g><text font-family="Aptos Narrow,Aptos Narrow_MSFontService,sans-serif" font-weight="400" font-stretch="semi-condensed" font-size="55" transform="matrix(6.12323e-17 -1 1 6.12323e-17 8579.95 5778)">2 W - 70K EPS</text></g><g><text font-family="Aptos Narrow,Aptos Narrow_MSFontService,sans-serif" font-weight="400" font-stretch="semi-condensed" font-size="55" transform="matrix(6.12323e-17 -1 1 6.12323e-17 8780.23 5778)">1 W - 60K EPS</text></g><g><text font-family="Aptos Narrow,Aptos Narrow_MSFontService,sans-serif" font-weight="400" font-stretch="semi-condensed" font-size="55" transform="matrix(6.12323e-17 -1 1 6.12323e-17 8980.51 5778)">2 W - 80K EPS</text></g><g><text font-family="Aptos Narrow,Aptos Narrow_MSFontService,sans-serif" font-weight="400" font-stretch="semi-condensed" font-size="73" transform="matrix(6.12323e-17 -1 1 6.12323e-17 4960.22 4816)">Latency (ms)</text></g><g><text font-family="Aptos Narrow,Aptos Narrow_MSFontService,sans-serif" font-weight="400" font-stretch="semi-condensed" font-size="73" transform="matrix(1 0 0 1 6239.28 5861)">Number of Workers </text></g><g><text font-family="Aptos Narrow,Aptos Narrow_MSFontService,sans-serif" font-weight="400" font-stretch="semi-condensed" font-size="73" transform="matrix(1 0 0 1 6815.13 5861)">-</text></g><g><text font-family="Aptos Narrow,Aptos Narrow_MSFontService,sans-serif" font-weight="400" font-stretch="semi-condensed" font-size="73" transform="matrix(1 0 0 1 6851.29 5861)">Total events per second (Thousand)</text></g><g><text font-family="Aptos Narrow,Aptos Narrow_MSFontService,sans-serif" font-weight="400" font-stretch="semi-condensed" font-size="92" transform="matrix(1 0 0 1 5660.1 3721)">Average latency of the last succesful packets from simulator to worker</text></g><g><path d="M6349 5978 6437 5978" stroke="#156082" stroke-width="10.3125" stroke-linecap="round" stroke-linejoin="round" stroke-miterlimit="10" fill="none" fill-rule="evenodd"/></g><g><text fill="#595959" font-family="Aptos Narrow,Aptos Narrow_MSFontService,sans-serif" font-weight="400" font-stretch="semi-condensed" font-size="41" transform="matrix(1 0 0 1 6445.91 5989)">Windows PC</text></g><g><path d="M6719 5978 6807 5978" stroke="#E97132" stroke-width="10.3125" stroke-linecap="round" stroke-linejoin="round" stroke-miterlimit="10" fill="none" fill-rule="evenodd"/></g><g><text fill="#595959" font-family="Aptos Narrow,Aptos Narrow_MSFontService,sans-serif" font-weight="400" font-stretch="semi-condensed" font-size="41" transform="matrix(1 0 0 1 6816.12 5989)">Macbook Air M3</text></g><g><path d="M7144 5978 7232 5978" stroke="#196B24" stroke-width="10.3125" stroke-linecap="round" stroke-linejoin="round" stroke-miterlimit="10" fill="none" fill-rule="evenodd"/></g><g><text fill="#595959" font-family="Aptos Narrow,Aptos Narrow_MSFontService,sans-serif" font-weight="400" font-stretch="semi-condensed" font-size="41" transform="matrix(1 0 0 1 7240.83 5989)">Windows Laptop</text></g><rect x="4834.5" y="3601.5" width="4178" height="2443" stroke="#D9D9D9" stroke-width="3.4375" stroke-linejoin="round" stroke-miterlimit="10" fill="none"/></g></svg>