<svg width="4181" height="2428" xmlns="http://www.w3.org/2000/svg" xmlns:xlink="http://www.w3.org/1999/xlink" xml:space="preserve" overflow="hidden"><defs><clipPath id="clip0"><rect x="552" y="3599" width="4181" height="2428"/></clipPath></defs><g clip-path="url(#clip0)" transform="translate(-552 -3599)"><rect x="553" y="3600" width="4178" height="2425" fill="#FFFFFF"/><g><path d="M969.5 5209.67 4680.5 5209.67M969.5 4993.66 4680.5 4993.66M969.5 4778.66 4680.5 4778.66M969.5 4563.65 4680.5 4563.65M969.5 4348.64 4680.5 4348.64M969.5 4132.64 4680.5 4132.64M969.5 3917.5 4680.5 3917.5" stroke="#D9D9D9" stroke-width="3.4375" stroke-linejoin="round" stroke-miterlimit="10" fill="none"/></g><g><path d="M969.5 3810.5 969.5 5424.5M1165.54 3810.5 1165.54 5424.5M1360.54 3810.5 1360.54 5424.5M1555.55 3810.5 1555.55 5424.5M1750.56 3810.5 1750.56 5424.5M1946.56 3810.5 1946.56 5424.5M2141.57 3810.5 2141.57 5424.5M2336.58 3810.5 2336.58 5424.5M2532.58 3810.5 2532.58 5424.5M2727.59 3810.5 2727.59 5424.5M2922.6 3810.5 2922.6 5424.5M3118.6 3810.5 3118.6 5424.5M3313.61 3810.5 3313.61 5424.5M3508.62 3810.5 3508.62 5424.5M3704.62 3810.5 3704.62 5424.5M3899.63 3810.5 3899.63 5424.5M4094.63 3810.5 4094.63 5424.5M4290.64 3810.5 4290.64 5424.5M4485.65 3810.5 4485.65 5424.5M4680.5 3810.5 4680.5 5424.5" stroke="#D9D9D9" stroke-width="3.4375" stroke-linejoin="round" stroke-miterlimit="10" fill="none"/></g><g><path d="M969.5 5424.5 4680.5 5424.5" stroke="#D9D9D9" stroke-width="3.4375" stroke-linejoin="round" stroke-miterlimit="10" fill="none" fill-rule="evenodd"/></g><g><path d="M970 3918 1165.04 3918 1360.04 3918 1556.05 3918 1751.06 3918 1946.06 3918 2142.07 3918 2337.08 4146.14 2532.08 4175.14 2728.09 4254.14 2923.1 4558.15 3118.1 4665.15 3313.11 4757.16 3509.11 5108.17 3704 5191" stroke="#156082" stroke-width="10.3125" stroke-linecap="round" stroke-linejoin="round" stroke-miterlimit="10" fill="none"/></g><g><path d="M980.072 3917.87C980.072 3923.94 975.148 3928.87 969.073 3928.87 962.998 3928.87 958.073 3923.94 958.073 3917.87 958.073 3911.79 962.998 3906.87 969.073 3906.87 975.148 3906.87 980.072 3911.79 980.072 3917.87Z" stroke="#156082" stroke-width="3.4375" stroke-linejoin="round" stroke-miterlimit="10" fill="#156082"/><path d="M1176.07 3917.87C1176.07 3923.94 1171.15 3928.87 1165.07 3928.87 1159 3928.87 1154.07 3923.94 1154.07 3917.87 1154.07 3911.79 1159 3906.87 1165.07 3906.87 1171.15 3906.87 1176.07 3911.79 1176.07 3917.87Z" stroke="#156082" stroke-width="3.4375" stroke-linejoin="round" stroke-miterlimit="10" fill="#156082"/><path d="M1371.07 3917.87C1371.07 3923.94 1366.15 3928.87 1360.07 3928.87 1354 3928.87 1349.07 3923.94 1349.07 3917.87 1349.07 3911.79 1354 3906.87 1360.07 3906.87 1366.15 3906.87 1371.07 3911.79 1371.07 3917.87Z" stroke="#156082" stroke-width="3.4375" stroke-linejoin="round" stroke-miterlimit="10" fill="#156082"/><path d="M1566.07 3917.87C1566.07 3923.94 1561.15 3928.87 1555.07 3928.87 1549 3928.87 1544.07 3923.94 1544.07 3917.87 1544.07 3911.79 1549 3906.87 1555.07 3906.87 1561.15 3906.87 1566.07 3911.79 1566.07 3917.87Z" stroke="#156082" stroke-width="3.4375" stroke-linejoin="round" stroke-miterlimit="10" fill="#156082"/><path d="M1762.07 3917.87C1762.07 3923.94 1757.15 3928.87 1751.07 3928.87 1745 3928.87 1740.07 3923.94 1740.07 3917.87 1740.07 3911.79 1745 3906.87 1751.07 3906.87 1757.15 3906.87 1762.07 3911.79 1762.07 3917.87Z" stroke="#156082" stroke-width="3.4375" stroke-linejoin="round" stroke-miterlimit="10" fill="#156082"/><path d="M1957.07 3917.87C1957.07 3923.94 1952.15 3928.87 1946.07 3928.87 1940 3928.87 1935.07 3923.94 1935.07 3917.87 1935.07 3911.79 1940 3906.87 1946.07 3906.87 1952.15 3906.87 1957.07 3911.79 1957.07 3917.87Z" stroke="#156082" stroke-width="3.4375" stroke-linejoin="round" stroke-miterlimit="10" fill="#156082"/><path d="M2152.07 3917.87C2152.07 3923.94 2147.15 3928.87 2141.07 3928.87 2135 3928.87 2130.07 3923.94 2130.07 3917.87 2130.07 3911.79 2135 3906.87 2141.07 3906.87 2147.15 3906.87 2152.07 3911.79 2152.07 3917.87Z" stroke="#156082" stroke-width="3.4375" stroke-linejoin="round" stroke-miterlimit="10" fill="#156082"/><path d="M2347.07 4146.87C2347.07 4152.94 2342.15 4157.87 2336.07 4157.87 2330 4157.87 2325.07 4152.94 2325.07 4146.87 2325.07 4140.79 2330 4135.87 2336.07 4135.87 2342.15 4135.87 2347.07 4140.79 2347.07 4146.87Z" stroke="#156082" stroke-width="3.4375" stroke-linejoin="round" stroke-miterlimit="10" fill="#156082"/><path d="M2543.07 4175.87C2543.07 4181.94 2538.15 4186.87 2532.07 4186.87 2526 4186.87 2521.07 4181.94 2521.07 4175.87 2521.07 4169.79 2526 4164.87 2532.07 4164.87 2538.15 4164.87 2543.07 4169.79 2543.07 4175.87Z" stroke="#156082" stroke-width="3.4375" stroke-linejoin="round" stroke-miterlimit="10" fill="#156082"/><path d="M2738.07 4254.87C2738.07 4260.94 2733.15 4265.87 2727.07 4265.87 2721 4265.87 2716.07 4260.94 2716.07 4254.87 2716.07 4248.79 2721 4243.87 2727.07 4243.87 2733.15 4243.87 2738.07 4248.79 2738.07 4254.87Z" stroke="#156082" stroke-width="3.4375" stroke-linejoin="round" stroke-miterlimit="10" fill="#156082"/><path d="M2933.07 4558.87C2933.07 4564.94 2928.15 4569.87 2922.07 4569.87 2916 4569.87 2911.07 4564.94 2911.07 4558.87 2911.07 4552.79 2916 4547.87 2922.07 4547.87 2928.15 4547.87 2933.07 4552.79 2933.07 4558.87Z" stroke="#156082" stroke-width="3.4375" stroke-linejoin="round" stroke-miterlimit="10" fill="#156082"/><path d="M3129.07 4665.87C3129.07 4671.94 3124.15 4676.87 3118.07 4676.87 3112 4676.87 3107.07 4671.94 3107.07 4665.87 3107.07 4659.79 3112 4654.87 3118.07 4654.87 3124.15 4654.87 3129.07 4659.79 3129.07 4665.87Z" stroke="#156082" stroke-width="3.4375" stroke-linejoin="round" stroke-miterlimit="10" fill="#156082"/><path d="M3324.07 4757.87C3324.07 4763.94 3319.15 4768.87 3313.07 4768.87 3307 4768.87 3302.07 4763.94 3302.07 4757.87 3302.07 4751.79 3307 4746.87 3313.07 4746.87 3319.15 4746.87 3324.07 4751.79 3324.07 4757.87Z" stroke="#156082" stroke-width="3.4375" stroke-linejoin="round" stroke-miterlimit="10" fill="#156082"/><path d="M3519.07 5108.87C3519.07 5114.94 3514.15 5119.87 3508.07 5119.87 3502 5119.87 3497.07 5114.94 3497.07 5108.87 3497.07 5102.79 3502 5097.87 3508.07 5097.87 3514.15 5097.87 3519.07 5102.79 3519.07 5108.87Z" stroke="#156082" stroke-width="3.4375" stroke-linejoin="round" stroke-miterlimit="10" fill="#156082"/><path d="M3715.07 5190.87C3715.07 5196.94 3710.15 5201.87 3704.07 5201.87 3698 5201.87 3693.07 5196.94 3693.07 5190.87 3693.07 5184.79 3698 5179.87 3704.07 5179.87 3710.15 5179.87 3715.07 5184.79 3715.07 5190.87Z" stroke="#156082" stroke-width="3.4375" stroke-linejoin="round" stroke-miterlimit="10" fill="#156082"/></g><g><path d="M970 3918 1165.04 3918 1360.04 3918 1556.05 3918 1751.06 3918 1946.06 3918 2142.07 3918 2337.08 3918 2532.08 3918 2728.09 3918 2923.1 3918 3118.1 3918 3313.11 3918 3509.11 3918 3704.12 3918 3899.13 3918 4095.13 3961.13 4290.14 4024.13 4485.15 4035.13 4681 4142" stroke="#E97132" stroke-width="10.3125" stroke-linecap="round" stroke-linejoin="round" stroke-miterlimit="10" fill="none"/></g><g><path d="M980.072 3917.87C980.072 3923.94 975.148 3928.87 969.073 3928.87 962.998 3928.87 958.073 3923.94 958.073 3917.87 958.073 3911.79 962.998 3906.87 969.073 3906.87 975.148 3906.87 980.072 3911.79 980.072 3917.87Z" stroke="#E97132" stroke-width="3.4375" stroke-linejoin="round" stroke-miterlimit="10" fill="#E97132"/><path d="M1176.07 3917.87C1176.07 3923.94 1171.15 3928.87 1165.07 3928.87 1159 3928.87 1154.07 3923.94 1154.07 3917.87 1154.07 3911.79 1159 3906.87 1165.07 3906.87 1171.15 3906.87 1176.07 3911.79 1176.07 3917.87Z" stroke="#E97132" stroke-width="3.4375" stroke-linejoin="round" stroke-miterlimit="10" fill="#E97132"/><path d="M1371.07 3917.87C1371.07 3923.94 1366.15 3928.87 1360.07 3928.87 1354 3928.87 1349.07 3923.94 1349.07 3917.87 1349.07 3911.79 1354 3906.87 1360.07 3906.87 1366.15 3906.87 1371.07 3911.79 1371.07 3917.87Z" stroke="#E97132" stroke-width="3.4375" stroke-linejoin="round" stroke-miterlimit="10" fill="#E97132"/><path d="M1566.07 3917.87C1566.07 3923.94 1561.15 3928.87 1555.07 3928.87 1549 3928.87 1544.07 3923.94 1544.07 3917.87 1544.07 3911.79 1549 3906.87 1555.07 3906.87 1561.15 3906.87 1566.07 3911.79 1566.07 3917.87Z" stroke="#E97132" stroke-width="3.4375" stroke-linejoin="round" stroke-miterlimit="10" fill="#E97132"/><path d="M1762.07 3917.87C1762.07 3923.94 1757.15 3928.87 1751.07 3928.87 1745 3928.87 1740.07 3923.94 1740.07 3917.87 1740.07 3911.79 1745 3906.87 1751.07 3906.87 1757.15 3906.87 1762.07 3911.79 1762.07 3917.87Z" stroke="#E97132" stroke-width="3.4375" stroke-linejoin="round" stroke-miterlimit="10" fill="#E97132"/><path d="M1957.07 3917.87C1957.07 3923.94 1952.15 3928.87 1946.07 3928.87 1940 3928.87 1935.07 3923.94 1935.07 3917.87 1935.07 3911.79 1940 3906.87 1946.07 3906.87 1952.15 3906.87 1957.07 3911.79 1957.07 3917.87Z" stroke="#E97132" stroke-width="3.4375" stroke-linejoin="round" stroke-miterlimit="10" fill="#E97132"/><path d="M2152.07 3917.87C2152.07 3923.94 2147.15 3928.87 2141.07 3928.87 2135 3928.87 2130.07 3923.94 2130.07 3917.87 2130.07 3911.79 2135 3906.87 2141.07 3906.87 2147.15 3906.87 2152.07 3911.79 2152.07 3917.87Z" stroke="#E97132" stroke-width="3.4375" stroke-linejoin="round" stroke-miterlimit="10" fill="#E97132"/><path d="M2347.07 3917.87C2347.07 3923.94 2342.15 3928.87 2336.07 3928.87 2330 3928.87 2325.07 3923.94 2325.07 3917.87 2325.07 3911.79 2330 3906.87 2336.07 3906.87 2342.15 3906.87 2347.07 3911.79 2347.07 3917.87Z" stroke="#E97132" stroke-width="3.4375" stroke-linejoin="round" stroke-miterlimit="10" fill="#E97132"/><path d="M2543.07 3917.87C2543.07 3923.94 2538.15 3928.87 2532.07 3928.87 2526 3928.87 2521.07 3923.94 2521.07 3917.87 2521.07 3911.79 2526 3906.87 2532.07 3906.87 2538.15 3906.87 2543.07 3911.79 2543.07 3917.87Z" stroke="#E97132" stroke-width="3.4375" stroke-linejoin="round" stroke-miterlimit="10" fill="#E97132"/><path d="M2738.07 3917.87C2738.07 3923.94 2733.15 3928.87 2727.07 3928.87 2721 3928.87 2716.07 3923.94 2716.07 3917.87 2716.07 3911.79 2721 3906.87 2727.07 3906.87 2733.15 3906.87 2738.07 3911.79 2738.07 3917.87Z" stroke="#E97132" stroke-width="3.4375" stroke-linejoin="round" stroke-miterlimit="10" fill="#E97132"/><path d="M2933.07 3917.87C2933.07 3923.94 2928.15 3928.87 2922.07 3928.87 2916 3928.87 2911.07 3923.94 2911.07 3917.87 2911.07 3911.79 2916 3906.87 2922.07 3906.87 2928.15 3906.87 2933.07 3911.79 2933.07 3917.87Z" stroke="#E97132" stroke-width="3.4375" stroke-linejoin="round" stroke-miterlimit="10" fill="#E97132"/><path d="M3129.07 3917.87C3129.07 3923.94 3124.15 3928.87 3118.07 3928.87 3112 3928.87 3107.07 3923.94 3107.07 3917.87 3107.07 3911.79 3112 3906.87 3118.07 3906.87 3124.15 3906.87 3129.07 3911.79 3129.07 3917.87Z" stroke="#E97132" stroke-width="3.4375" stroke-linejoin="round" stroke-miterlimit="10" fill="#E97132"/><path d="M3324.07 3917.87C3324.07 3923.94 3319.15 3928.87 3313.07 3928.87 3307 3928.87 3302.07 3923.94 3302.07 3917.87 3302.07 3911.79 3307 3906.87 3313.07 3906.87 3319.15 3906.87 3324.07 3911.79 3324.07 3917.87Z" stroke="#E97132" stroke-width="3.4375" stroke-linejoin="round" stroke-miterlimit="10" fill="#E97132"/><path d="M3519.07 3917.87C3519.07 3923.94 3514.15 3928.87 3508.07 3928.87 3502 3928.87 3497.07 3923.94 3497.07 3917.87 3497.07 3911.79 3502 3906.87 3508.07 3906.87 3514.15 3906.87 3519.07 3911.79 3519.07 3917.87Z" stroke="#E97132" stroke-width="3.4375" stroke-linejoin="round" stroke-miterlimit="10" fill="#E97132"/><path d="M3715.07 3917.87C3715.07 3923.94 3710.15 3928.87 3704.07 3928.87 3698 3928.87 3693.07 3923.94 3693.07 3917.87 3693.07 3911.79 3698 3906.87 3704.07 3906.87 3710.15 3906.87 3715.07 3911.79 3715.07 3917.87Z" stroke="#E97132" stroke-width="3.4375" stroke-linejoin="round" stroke-miterlimit="10" fill="#E97132"/><path d="M3910.07 3917.87C3910.07 3923.94 3905.15 3928.87 3899.07 3928.87 3893 3928.87 3888.07 3923.94 3888.07 3917.87 3888.07 3911.79 3893 3906.87 3899.07 3906.87 3905.15 3906.87 3910.07 3911.79 3910.07 3917.87Z" stroke="#E97132" stroke-width="3.4375" stroke-linejoin="round" stroke-miterlimit="10" fill="#E97132"/><path d="M4105.07 3961.87C4105.07 3967.94 4100.15 3972.87 4094.07 3972.87 4088 3972.87 4083.07 3967.94 4083.07 3961.87 4083.07 3955.79 4088 3950.87 4094.07 3950.87 4100.15 3950.87 4105.07 3955.79 4105.07 3961.87Z" stroke="#E97132" stroke-width="3.4375" stroke-linejoin="round" stroke-miterlimit="10" fill="#E97132"/><path d="M4301.07 4024.87C4301.07 4030.94 4296.15 4035.87 4290.07 4035.87 4284 4035.87 4279.07 4030.94 4279.07 4024.87 4279.07 4018.79 4284 4013.87 4290.07 4013.87 4296.15 4013.87 4301.07 4018.79 4301.07 4024.87Z" stroke="#E97132" stroke-width="3.4375" stroke-linejoin="round" stroke-miterlimit="10" fill="#E97132"/><path d="M4496.07 4035.87C4496.07 4041.94 4491.15 4046.87 4485.07 4046.87 4479 4046.87 4474.07 4041.94 4474.07 4035.87 4474.07 4029.79 4479 4024.87 4485.07 4024.87 4491.15 4024.87 4496.07 4029.79 4496.07 4035.87Z" stroke="#E97132" stroke-width="3.4375" stroke-linejoin="round" stroke-miterlimit="10" fill="#E97132"/><path d="M4691.07 4142.87C4691.07 4148.94 4686.15 4153.87 4680.07 4153.87 4674 4153.87 4669.07 4148.94 4669.07 4142.87 4669.07 4136.79 4674 4131.87 4680.07 4131.87 4686.15 4131.87 4691.07 4136.79 4691.07 4142.87Z" stroke="#E97132" stroke-width="3.4375" stroke-linejoin="round" stroke-miterlimit="10" fill="#E97132"/></g><g><path d="M970 3918 1165.04 3918 1360.04 3918 1556.05 3918 1751.06 3918 1946.06 3918 2142.07 3918 2337.08 3918 2532.08 3918 2728.09 4076.13 2923.1 4071.13 3118.1 4444.15 3313.11 4456.15 3509.11 4991.16 3704 5212" stroke="#196B24" stroke-width="10.3125" stroke-linecap="round" stroke-linejoin="round" stroke-miterlimit="10" fill="none"/></g><g><path d="M980.072 3917.87C980.072 3923.94 975.148 3928.87 969.073 3928.87 962.998 3928.87 958.073 3923.94 958.073 3917.87 958.073 3911.79 962.998 3906.87 969.073 3906.87 975.148 3906.87 980.072 3911.79 980.072 3917.87Z" stroke="#196B24" stroke-width="3.4375" stroke-linejoin="round" stroke-miterlimit="10" fill="#196B24"/><path d="M1176.07 3917.87C1176.07 3923.94 1171.15 3928.87 1165.07 3928.87 1159 3928.87 1154.07 3923.94 1154.07 3917.87 1154.07 3911.79 1159 3906.87 1165.07 3906.87 1171.15 3906.87 1176.07 3911.79 1176.07 3917.87Z" stroke="#196B24" stroke-width="3.4375" stroke-linejoin="round" stroke-miterlimit="10" fill="#196B24"/><path d="M1371.07 3917.87C1371.07 3923.94 1366.15 3928.87 1360.07 3928.87 1354 3928.87 1349.07 3923.94 1349.07 3917.87 1349.07 3911.79 1354 3906.87 1360.07 3906.87 1366.15 3906.87 1371.07 3911.79 1371.07 3917.87Z" stroke="#196B24" stroke-width="3.4375" stroke-linejoin="round" stroke-miterlimit="10" fill="#196B24"/><path d="M1566.07 3917.87C1566.07 3923.94 1561.15 3928.87 1555.07 3928.87 1549 3928.87 1544.07 3923.94 1544.07 3917.87 1544.07 3911.79 1549 3906.87 1555.07 3906.87 1561.15 3906.87 1566.07 3911.79 1566.07 3917.87Z" stroke="#196B24" stroke-width="3.4375" stroke-linejoin="round" stroke-miterlimit="10" fill="#196B24"/><path d="M1762.07 3917.87C1762.07 3923.94 1757.15 3928.87 1751.07 3928.87 1745 3928.87 1740.07 3923.94 1740.07 3917.87 1740.07 3911.79 1745 3906.87 1751.07 3906.87 1757.15 3906.87 1762.07 3911.79 1762.07 3917.87Z" stroke="#196B24" stroke-width="3.4375" stroke-linejoin="round" stroke-miterlimit="10" fill="#196B24"/><path d="M1957.07 3917.87C1957.07 3923.94 1952.15 3928.87 1946.07 3928.87 1940 3928.87 1935.07 3923.94 1935.07 3917.87 1935.07 3911.79 1940 3906.87 1946.07 3906.87 1952.15 3906.87 1957.07 3911.79 1957.07 3917.87Z" stroke="#196B24" stroke-width="3.4375" stroke-linejoin="round" stroke-miterlimit="10" fill="#196B24"/><path d="M2152.07 3917.87C2152.07 3923.94 2147.15 3928.87 2141.07 3928.87 2135 3928.87 2130.07 3923.94 2130.07 3917.87 2130.07 3911.79 2135 3906.87 2141.07 3906.87 2147.15 3906.87 2152.07 3911.79 2152.07 3917.87Z" stroke="#196B24" stroke-width="3.4375" stroke-linejoin="round" stroke-miterlimit="10" fill="#196B24"/><path d="M2347.07 3917.87C2347.07 3923.94 2342.15 3928.87 2336.07 3928.87 2330 3928.87 2325.07 3923.94 2325.07 3917.87 2325.07 3911.79 2330 3906.87 2336.07 3906.87 2342.15 3906.87 2347.07 3911.79 2347.07 3917.87Z" stroke="#196B24" stroke-width="3.4375" stroke-linejoin="round" stroke-miterlimit="10" fill="#196B24"/><path d="M2543.07 3917.87C2543.07 3923.94 2538.15 3928.87 2532.07 3928.87 2526 3928.87 2521.07 3923.94 2521.07 3917.87 2521.07 3911.79 2526 3906.87 2532.07 3906.87 2538.15 3906.87 2543.07 3911.79 2543.07 3917.87Z" stroke="#196B24" stroke-width="3.4375" stroke-linejoin="round" stroke-miterlimit="10" fill="#196B24"/><path d="M2738.07 4075.87C2738.07 4081.94 2733.15 4086.87 2727.07 4086.87 2721 4086.87 2716.07 4081.94 2716.07 4075.87 2716.07 4069.79 2721 4064.87 2727.07 4064.87 2733.15 4064.87 2738.07 4069.79 2738.07 4075.87Z" stroke="#196B24" stroke-width="3.4375" stroke-linejoin="round" stroke-miterlimit="10" fill="#196B24"/><path d="M2933.07 4071.87C2933.07 4077.94 2928.15 4082.87 2922.07 4082.87 2916 4082.87 2911.07 4077.94 2911.07 4071.87 2911.07 4065.79 2916 4060.87 2922.07 4060.87 2928.15 4060.87 2933.07 4065.79 2933.07 4071.87Z" stroke="#196B24" stroke-width="3.4375" stroke-linejoin="round" stroke-miterlimit="10" fill="#196B24"/><path d="M3129.07 4444.87C3129.07 4450.94 3124.15 4455.87 3118.07 4455.87 3112 4455.87 3107.07 4450.94 3107.07 4444.87 3107.07 4438.79 3112 4433.87 3118.07 4433.87 3124.15 4433.87 3129.07 4438.79 3129.07 4444.87Z" stroke="#196B24" stroke-width="3.4375" stroke-linejoin="round" stroke-miterlimit="10" fill="#196B24"/><path d="M3324.07 4456.87C3324.07 4462.94 3319.15 4467.87 3313.07 4467.87 3307 4467.87 3302.07 4462.94 3302.07 4456.87 3302.07 4450.79 3307 4445.87 3313.07 4445.87 3319.15 4445.87 3324.07 4450.79 3324.07 4456.87Z" stroke="#196B24" stroke-width="3.4375" stroke-linejoin="round" stroke-miterlimit="10" fill="#196B24"/><path d="M3519.07 4991.87C3519.07 4997.94 3514.15 5002.87 3508.07 5002.87 3502 5002.87 3497.07 4997.94 3497.07 4991.87 3497.07 4985.79 3502 4980.87 3508.07 4980.87 3514.15 4980.87 3519.07 4985.79 3519.07 4991.87Z" stroke="#196B24" stroke-width="3.4375" stroke-linejoin="round" stroke-miterlimit="10" fill="#196B24"/><path d="M3715.07 5211.87C3715.07 5217.94 3710.15 5222.87 3704.07 5222.87 3698 5222.87 3693.07 5217.94 3693.07 5211.87 3693.07 5205.79 3698 5200.87 3704.07 5200.87 3710.15 5200.87 3715.07 5205.79 3715.07 5211.87Z" stroke="#196B24" stroke-width="3.4375" stroke-linejoin="round" stroke-miterlimit="10" fill="#196B24"/></g><g><text font-family="Aptos Narrow,Aptos Narrow_MSFontService,sans-serif" font-weight="400" font-stretch="semi-condensed" font-size="55" transform="matrix(1 0 0 1 741.017 5440)">30.00 %</text></g><g><text font-family="Aptos Narrow,Aptos Narrow_MSFontService,sans-serif" font-weight="400" font-stretch="semi-condensed" font-size="55" transform="matrix(1 0 0 1 741.017 5225)">40.00 %</text></g><g><text font-family="Aptos Narrow,Aptos Narrow_MSFontService,sans-serif" font-weight="400" font-stretch="semi-condensed" font-size="55" transform="matrix(1 0 0 1 741.017 5009)">50.00 %</text></g><g><text font-family="Aptos Narrow,Aptos Narrow_MSFontService,sans-serif" font-weight="400" font-stretch="semi-condensed" font-size="55" transform="matrix(1 0 0 1 741.017 4794)">60.00 %</text></g><g><text font-family="Aptos Narrow,Aptos Narrow_MSFontService,sans-serif" font-weight="400" font-stretch="semi-condensed" font-size="55" transform="matrix(1 0 0 1 741.017 4579)">70.00 %</text></g><g><text font-family="Aptos Narrow,Aptos Narrow_MSFontService,sans-serif" font-weight="400" font-stretch="semi-condensed" font-size="55" transform="matrix(1 0 0 1 741.017 4364)">80.00 %</text></g><g><text font-family="Aptos Narrow,Aptos Narrow_MSFontService,sans-serif" font-weight="400" font-stretch="semi-condensed" font-size="55" transform="matrix(1 0 0 1 741.017 4148)">90.00 %</text></g><g><text font-family="Aptos Narrow,Aptos Narrow_MSFontService,sans-serif" font-weight="400" font-stretch="semi-condensed" font-size="55" transform="matrix(1 0 0 1 713.15 3933)">100.00 %</text></g><g><text font-family="Aptos Narrow,Aptos Narrow_MSFontService,sans-serif" font-weight="400" font-stretch="semi-condensed" font-size="55" transform="matrix(6.12323e-17 -1 1 6.12323e-17 988.16 5760)">1 W - 10K EPS</text></g><g><text font-family="Aptos Narrow,Aptos Narrow_MSFontService,sans-serif" font-weight="400" font-stretch="semi-condensed" font-size="55" transform="matrix(6.12323e-17 -1 1 6.12323e-17 1183.48 5760)">2 W - 10K EPS</text></g><g><text font-family="Aptos Narrow,Aptos Narrow_MSFontService,sans-serif" font-weight="400" font-stretch="semi-condensed" font-size="55" transform="matrix(6.12323e-17 -1 1 6.12323e-17 1378.8 5760)">3 W - 10K EPS</text></g><g><text font-family="Aptos Narrow,Aptos Narrow_MSFontService,sans-serif" font-weight="400" font-stretch="semi-condensed" font-size="55" transform="matrix(6.12323e-17 -1 1 6.12323e-17 1574.12 5760)">1 W - 20K EPS</text></g><g><text font-family="Aptos Narrow,Aptos Narrow_MSFontService,sans-serif" font-weight="400" font-stretch="semi-condensed" font-size="55" transform="matrix(6.12323e-17 -1 1 6.12323e-17 1769.44 5760)">2 W - 20K EPS</text></g><g><text font-family="Aptos Narrow,Aptos Narrow_MSFontService,sans-serif" font-weight="400" font-stretch="semi-condensed" font-size="55" transform="matrix(6.12323e-17 -1 1 6.12323e-17 1964.77 5760)">3 W - 20K EPS</text></g><g><text font-family="Aptos Narrow,Aptos Narrow_MSFontService,sans-serif" font-weight="400" font-stretch="semi-condensed" font-size="55" transform="matrix(6.12323e-17 -1 1 6.12323e-17 2160.09 5760)">3 W - 30K EPS</text></g><g><text font-family="Aptos Narrow,Aptos Narrow_MSFontService,sans-serif" font-weight="400" font-stretch="semi-condensed" font-size="55" transform="matrix(6.12323e-17 -1 1 6.12323e-17 2355.41 5760)">3 W - 40K EPS</text></g><g><text font-family="Aptos Narrow,Aptos Narrow_MSFontService,sans-serif" font-weight="400" font-stretch="semi-condensed" font-size="55" transform="matrix(6.12323e-17 -1 1 6.12323e-17 2550.73 5760)">2 W - 30K EPS</text></g><g><text font-family="Aptos Narrow,Aptos Narrow_MSFontService,sans-serif" font-weight="400" font-stretch="semi-condensed" font-size="55" transform="matrix(6.12323e-17 -1 1 6.12323e-17 2746.05 5760)">3 W - 50K EPS</text></g><g><text font-family="Aptos Narrow,Aptos Narrow_MSFontService,sans-serif" font-weight="400" font-stretch="semi-condensed" font-size="55" transform="matrix(6.12323e-17 -1 1 6.12323e-17 2941.37 5760)">2 W - 40K EPS</text></g><g><text font-family="Aptos Narrow,Aptos Narrow_MSFontService,sans-serif" font-weight="400" font-stretch="semi-condensed" font-size="55" transform="matrix(6.12323e-17 -1 1 6.12323e-17 3136.69 5760)">2 W - 50K EPS</text></g><g><text font-family="Aptos Narrow,Aptos Narrow_MSFontService,sans-serif" font-weight="400" font-stretch="semi-condensed" font-size="55" transform="matrix(6.12323e-17 -1 1 6.12323e-17 3332.01 5760)">1 W - 30K EPS</text></g><g><text font-family="Aptos Narrow,Aptos Narrow_MSFontService,sans-serif" font-weight="400" font-stretch="semi-condensed" font-size="55" transform="matrix(6.12323e-17 -1 1 6.12323e-17 3527.33 5760)">1 W - 40K EPS</text></g><g><text font-family="Aptos Narrow,Aptos Narrow_MSFontService,sans-serif" font-weight="400" font-stretch="semi-condensed" font-size="55" transform="matrix(6.12323e-17 -1 1 6.12323e-17 3722.66 5760)">1 W - 50K EPS</text></g><g><text font-family="Aptos Narrow,Aptos Narrow_MSFontService,sans-serif" font-weight="400" font-stretch="semi-condensed" font-size="55" transform="matrix(6.12323e-17 -1 1 6.12323e-17 3917.98 5760)">2 W - 60K EPS</text></g><g><text font-family="Aptos Narrow,Aptos Narrow_MSFontService,sans-serif" font-weight="400" font-stretch="semi-condensed" font-size="55" transform="matrix(6.12323e-17 -1 1 6.12323e-17 4113.3 5760)">3 W - 70K EPS</text></g><g><text font-family="Aptos Narrow,Aptos Narrow_MSFontService,sans-serif" font-weight="400" font-stretch="semi-condensed" font-size="55" transform="matrix(6.12323e-17 -1 1 6.12323e-17 4308.62 5760)">2 W - 70K EPS</text></g><g><text font-family="Aptos Narrow,Aptos Narrow_MSFontService,sans-serif" font-weight="400" font-stretch="semi-condensed" font-size="55" transform="matrix(6.12323e-17 -1 1 6.12323e-17 4503.94 5760)">1 W - 60K EPS</text></g><g><text font-family="Aptos Narrow,Aptos Narrow_MSFontService,sans-serif" font-weight="400" font-stretch="semi-condensed" font-size="55" transform="matrix(6.12323e-17 -1 1 6.12323e-17 4699.26 5760)">2 W - 80K EPS</text></g><g><text font-family="Aptos Narrow,Aptos Narrow_MSFontService,sans-serif" font-weight="400" font-stretch="semi-condensed" font-size="73" transform="matrix(6.12323e-17 -1 1 6.12323e-17 678.867 5104)">Events succesfully processed (%)</text></g><g><text font-family="Aptos Narrow,Aptos Narrow_MSFontService,sans-serif" font-weight="400" font-stretch="semi-condensed" font-size="73" transform="matrix(1 0 0 1 2005.14 5842)">Number of Workers </text></g><g><text font-family="Aptos Narrow,Aptos Narrow_MSFontService,sans-serif" font-weight="400" font-stretch="semi-condensed" font-size="73" transform="matrix(1 0 0 1 2580.99 5842)">-</text></g><g><text font-family="Aptos Narrow,Aptos Narrow_MSFontService,sans-serif" font-weight="400" font-stretch="semi-condensed" font-size="73" transform="matrix(1 0 0 1 2617.15 5842)">Total events per second (Thousand)</text></g><g><text font-family="Aptos Narrow,Aptos Narrow_MSFontService,sans-serif" font-weight="400" font-stretch="semi-condensed" font-size="92" transform="matrix(1 0 0 1 2055.12 3721)">Percentage of succesful packets</text></g><g><path d="M2067 5959 2155 5959" stroke="#156082" stroke-width="10.3125" stroke-linecap="round" stroke-linejoin="round" stroke-miterlimit="10" fill="none" fill-rule="evenodd"/></g><g><path d="M2122 5958C2122 5964.07 2117.08 5969 2111 5969 2104.93 5969 2100 5964.07 2100 5958 2100 5951.92 2104.93 5947 2111 5947 2117.08 5947 2122 5951.92 2122 5958Z" stroke="#156082" stroke-width="3.4375" stroke-linejoin="round" stroke-miterlimit="10" fill="#156082"/></g><g><text fill="#595959" font-family="Aptos Narrow,Aptos Narrow_MSFontService,sans-serif" font-weight="400" font-stretch="semi-condensed" font-size="41" transform="matrix(1 0 0 1 2164.61 5970)">Windows PC</text></g><g><path d="M2438 5959 2526 5959" stroke="#E97132" stroke-width="10.3125" stroke-linecap="round" stroke-linejoin="round" stroke-miterlimit="10" fill="none" fill-rule="evenodd"/></g><g><path d="M2492 5958C2492 5964.07 2487.07 5969 2481 5969 2474.93 5969 2470 5964.07 2470 5958 2470 5951.92 2474.93 5947 2481 5947 2487.07 5947 2492 5951.92 2492 5958Z" stroke="#E97132" stroke-width="3.4375" stroke-linejoin="round" stroke-miterlimit="10" fill="#E97132"/></g><g><text fill="#595959" font-family="Aptos Narrow,Aptos Narrow_MSFontService,sans-serif" font-weight="400" font-stretch="semi-condensed" font-size="41" transform="matrix(1 0 0 1 2534.82 5970)">Macbook Air M3</text></g><g><path d="M2862 5959 2950 5959" stroke="#196B24" stroke-width="10.3125" stroke-linecap="round" stroke-linejoin="round" stroke-miterlimit="10" fill="none" fill-rule="evenodd"/></g><g><path d="M2917 5958C2917 5964.07 2912.07 5969 2906 5969 2899.92 5969 2895 5964.07 2895 5958 2895 5951.92 2899.92 5947 2906 5947 2912.07 5947 2917 5951.92 2917 5958Z" stroke="#196B24" stroke-width="3.4375" stroke-linejoin="round" stroke-miterlimit="10" fill="#196B24"/></g><g><text fill="#595959" font-family="Aptos Narrow,Aptos Narrow_MSFontService,sans-serif" font-weight="400" font-stretch="semi-condensed" font-size="41" transform="matrix(1 0 0 1 2959.53 5970)">Windows Laptop</text></g><rect x="553.5" y="3600.5" width="4178" height="2425" stroke="#D9D9D9" stroke-width="3.4375" stroke-linejoin="round" stroke-miterlimit="10" fill="none"/></g></svg>